<?xml version="1.0" encoding="UTF-8" standalone="no"?>
<!DOCTYPE svg PUBLIC "-//W3C//DTD SVG 1.1//EN"
 "http://www.w3.org/Graphics/SVG/1.1/DTD/svg11.dtd">
<!-- Generated by graphviz version 2.40.1 (20161225.0304)
 -->
<!-- Title: %0 Pages: 1 -->
<svg width="688pt" height="1840pt"
 viewBox="0.00 0.00 687.72 1840.00" xmlns="http://www.w3.org/2000/svg" xmlns:xlink="http://www.w3.org/1999/xlink">
<g id="graph0" class="graph" transform="scale(1 1) rotate(0) translate(144 1696)">
<title>%0</title>
<polygon fill="#ffffff" stroke="transparent" points="-144,144 -144,-1696 543.7196,-1696 543.7196,144 -144,144"/>
<!-- categories -->
<g id="node1" class="node">
<title>categories</title>
<polygon fill="#4477c9" stroke="transparent" points="7,0 7,-138 83,-138 83,0 7,0"/>
<polygon fill="#add8e6" stroke="transparent" points="7,-120 7,-138 83,-138 83,-120 7,-120"/>
<polygon fill="none" stroke="#000000" points="7,-120 7,-138 83,-138 83,-120 7,-120"/>
<text text-anchor="start" x="24.5106" y="-126.9" font-family="Times,serif" font-weight="bold" font-style="italic" font-size="9.00" fill="#000000"> categories </text>
<polygon fill="none" stroke="#000000" points="7,-100 7,-120 83,-120 83,-100 7,-100"/>
<text text-anchor="start" x="12" y="-106.9" font-family="Times,serif" font-size="9.00" fill="#000000">name: String</text>
<polygon fill="none" stroke="#000000" points="7,-80 7,-100 83,-100 83,-80 7,-80"/>
<text text-anchor="start" x="11.6334" y="-86.9" font-family="Times,serif" font-size="9.00" fill="#000000">is_active: Boolean</text>
<polygon fill="none" stroke="#000000" points="7,-60 7,-80 83,-80 83,-60 7,-60"/>
<text text-anchor="start" x="12" y="-66.9" font-family="Times,serif" font-size="9.00" fill="#000000">_id: ObjectId</text>
<polygon fill="none" stroke="#000000" points="7,-40 7,-60 83,-60 83,-40 7,-40"/>
<text text-anchor="start" x="12" y="-46.9" font-family="Times,serif" font-size="9.00" fill="#000000">createdAt: Date</text>
<polygon fill="none" stroke="#000000" points="7,-20 7,-40 83,-40 83,-20 7,-20"/>
<text text-anchor="start" x="12" y="-26.9" font-family="Times,serif" font-size="9.00" fill="#000000">updatedAt: Date</text>
<polygon fill="none" stroke="#000000" points="7,0 7,-20 83,-20 83,0 7,0"/>
<text text-anchor="start" x="12" y="-6.9" font-family="Times,serif" font-size="9.00" fill="#000000">__v: Number</text>
</g>
<!-- appointments -->
<g id="node2" class="node">
<title>appointments</title>
<polygon fill="#4477c9" stroke="transparent" points="312.2196,-710 312.2196,-888 390.2196,-888 390.2196,-710 312.2196,-710"/>
<polygon fill="#add8e6" stroke="transparent" points="312.2196,-870 312.2196,-888 390.2196,-888 390.2196,-870 312.2196,-870"/>
<polygon fill="none" stroke="#000000" points="312.2196,-870 312.2196,-888 390.2196,-888 390.2196,-870 312.2196,-870"/>
<text text-anchor="start" x="324.7223" y="-876.9" font-family="Times,serif" font-weight="bold" font-style="italic" font-size="9.00" fill="#000000"> appointments </text>
<polygon fill="none" stroke="#000000" points="312.2196,-850 312.2196,-870 390.2196,-870 390.2196,-850 312.2196,-850"/>
<text text-anchor="start" x="317.1065" y="-856.9" font-family="Times,serif" font-size="9.00" fill="#000000">patientId: ObjectId</text>
<polygon fill="none" stroke="#000000" points="312.2196,-830 312.2196,-850 390.2196,-850 390.2196,-830 312.2196,-830"/>
<text text-anchor="start" x="317.2196" y="-836.9" font-family="Times,serif" font-size="9.00" fill="#000000">doctorId: ObjectId</text>
<polygon fill="none" stroke="#000000" points="312.2196,-810 312.2196,-830 390.2196,-830 390.2196,-810 312.2196,-810"/>
<text text-anchor="start" x="317.2196" y="-816.9" font-family="Times,serif" font-size="9.00" fill="#000000">date: Date</text>
<polygon fill="none" stroke="#000000" points="312.2196,-790 312.2196,-810 390.2196,-810 390.2196,-790 312.2196,-790"/>
<text text-anchor="start" x="317.2196" y="-796.9" font-family="Times,serif" font-size="9.00" fill="#000000">time: String</text>
<polygon fill="none" stroke="#000000" points="312.2196,-770 312.2196,-790 390.2196,-790 390.2196,-770 312.2196,-770"/>
<text text-anchor="start" x="317.2196" y="-776.9" font-family="Times,serif" font-size="9.00" fill="#000000">status: String</text>
<polygon fill="none" stroke="#000000" points="312.2196,-750 312.2196,-770 390.2196,-770 390.2196,-750 312.2196,-750"/>
<text text-anchor="start" x="317.2196" y="-756.9" font-family="Times,serif" font-size="9.00" fill="#000000">createdAt: Date</text>
<polygon fill="none" stroke="#000000" points="312.2196,-730 312.2196,-750 390.2196,-750 390.2196,-730 312.2196,-730"/>
<text text-anchor="start" x="317.2196" y="-736.9" font-family="Times,serif" font-size="9.00" fill="#000000">_id: ObjectId</text>
<polygon fill="none" stroke="#000000" points="312.2196,-710 312.2196,-730 390.2196,-730 390.2196,-710 312.2196,-710"/>
<text text-anchor="start" x="317.2196" y="-716.9" font-family="Times,serif" font-size="9.00" fill="#000000">__v: Number</text>
</g>
<!-- carts -->
<g id="node3" class="node">
<title>carts</title>
<polygon fill="#4477c9" stroke="transparent" points="317.2196,-960 317.2196,-1058 385.2196,-1058 385.2196,-960 317.2196,-960"/>
<polygon fill="#add8e6" stroke="transparent" points="317.2196,-1040 317.2196,-1058 385.2196,-1058 385.2196,-1040 317.2196,-1040"/>
<polygon fill="none" stroke="#000000" points="317.2196,-1040 317.2196,-1058 385.2196,-1058 385.2196,-1040 317.2196,-1040"/>
<text text-anchor="start" x="340.4759" y="-1046.9" font-family="Times,serif" font-weight="bold" font-style="italic" font-size="9.00" fill="#000000"> carts </text>
<polygon fill="none" stroke="#000000" points="317.2196,-1020 317.2196,-1040 385.2196,-1040 385.2196,-1020 317.2196,-1020"/>
<text text-anchor="start" x="321.8576" y="-1026.9" font-family="Times,serif" font-size="9.00" fill="#000000">userId: ObjectId</text>
<polygon fill="none" stroke="#000000" points="317.2196,-1000 317.2196,-1020 385.2196,-1020 385.2196,-1000 317.2196,-1000"/>
<text text-anchor="start" x="322.2196" y="-1006.9" font-family="Times,serif" font-size="9.00" fill="#000000">items: Array</text>
<polygon fill="none" stroke="#000000" points="317.2196,-980 317.2196,-1000 385.2196,-1000 385.2196,-980 317.2196,-980"/>
<text text-anchor="start" x="322.2196" y="-986.9" font-family="Times,serif" font-size="9.00" fill="#000000">_id: ObjectId</text>
<polygon fill="none" stroke="#000000" points="317.2196,-960 317.2196,-980 385.2196,-980 385.2196,-960 317.2196,-960"/>
<text text-anchor="start" x="322.2196" y="-966.9" font-family="Times,serif" font-size="9.00" fill="#000000">__v: Number</text>
</g>
<!-- doctors -->
<g id="node4" class="node">
<title>doctors</title>
<polygon fill="#4477c9" stroke="transparent" points="0,-1124 0,-1342 90,-1342 90,-1124 0,-1124"/>
<polygon fill="#add8e6" stroke="transparent" points="0,-1324 0,-1342 90,-1342 90,-1324 0,-1324"/>
<polygon fill="none" stroke="#000000" points="0,-1324 0,-1342 90,-1342 90,-1324 0,-1324"/>
<text text-anchor="start" x="29.5038" y="-1330.9" font-family="Times,serif" font-weight="bold" font-style="italic" font-size="9.00" fill="#000000"> doctors </text>
<polygon fill="none" stroke="#000000" points="0,-1304 0,-1324 90,-1324 90,-1304 0,-1304"/>
<text text-anchor="start" x="5" y="-1310.9" font-family="Times,serif" font-size="9.00" fill="#000000">name: String</text>
<polygon fill="none" stroke="#000000" points="0,-1284 0,-1304 90,-1304 90,-1284 0,-1284"/>
<text text-anchor="start" x="5" y="-1290.9" font-family="Times,serif" font-size="9.00" fill="#000000">specialization: String</text>
<polygon fill="none" stroke="#000000" points="0,-1264 0,-1284 90,-1284 90,-1264 0,-1264"/>
<text text-anchor="start" x="5" y="-1270.9" font-family="Times,serif" font-size="9.00" fill="#000000">availableDays: Array</text>
<polygon fill="none" stroke="#000000" points="0,-1244 0,-1264 90,-1264 90,-1244 0,-1244"/>
<text text-anchor="start" x="4.6427" y="-1250.9" font-family="Times,serif" font-size="9.00" fill="#000000">availableTimes: Array</text>
<polygon fill="none" stroke="#000000" points="0,-1224 0,-1244 90,-1244 90,-1224 0,-1224"/>
<text text-anchor="start" x="5" y="-1230.9" font-family="Times,serif" font-size="9.00" fill="#000000">contact: String</text>
<polygon fill="none" stroke="#000000" points="0,-1204 0,-1224 90,-1224 90,-1204 0,-1204"/>
<text text-anchor="start" x="5" y="-1210.9" font-family="Times,serif" font-size="9.00" fill="#000000">email: String</text>
<polygon fill="none" stroke="#000000" points="0,-1184 0,-1204 90,-1204 90,-1184 0,-1184"/>
<text text-anchor="start" x="5" y="-1190.9" font-family="Times,serif" font-size="9.00" fill="#000000">_id: ObjectId</text>
<polygon fill="none" stroke="#000000" points="0,-1164 0,-1184 90,-1184 90,-1164 0,-1164"/>
<text text-anchor="start" x="5" y="-1170.9" font-family="Times,serif" font-size="9.00" fill="#000000">createdAt: Date</text>
<polygon fill="none" stroke="#000000" points="0,-1144 0,-1164 90,-1164 90,-1144 0,-1144"/>
<text text-anchor="start" x="5" y="-1150.9" font-family="Times,serif" font-size="9.00" fill="#000000">updatedAt: Date</text>
<polygon fill="none" stroke="#000000" points="0,-1124 0,-1144 90,-1144 90,-1124 0,-1124"/>
<text text-anchor="start" x="5" y="-1130.9" font-family="Times,serif" font-size="9.00" fill="#000000">__v: Number</text>
</g>
<!-- doctors&#45;&gt;appointments -->
<g id="edge2" class="edge">
<title>doctors:6&#45;&gt;appointments:1</title>
<path fill="none" stroke="#000000" stroke-dasharray="5,2" d="M90,-1194C115.8911,-1194 107.6354,-1166.4507 126,-1148.2 182.1515,-1092.3967 224.1456,-1105.7416 266.7196,-1039 315.5119,-962.5103 221.4928,-840 312.2196,-840"/>
<text text-anchor="middle" x="196.3598" y="-1152.2" font-family="Times,serif" font-size="14.00" fill="#000000">doctors&#45;appointments</text>
<text text-anchor="middle" x="307.1663" y="-827.4" font-family="Times,serif" font-size="14.00" fill="#000000">N</text>
<text text-anchor="middle" x="93.5" y="-1181.4" font-family="Times,serif" font-size="14.00" fill="#000000">1</text>
</g>
<!-- reviews -->
<g id="node8" class="node">
<title>reviews</title>
<polygon fill="#4477c9" stroke="transparent" points="310.7196,-1133 310.7196,-1331 391.7196,-1331 391.7196,-1133 310.7196,-1133"/>
<polygon fill="#add8e6" stroke="transparent" points="311.2196,-1313 311.2196,-1331 392.2196,-1331 392.2196,-1313 311.2196,-1313"/>
<polygon fill="none" stroke="#000000" points="311.2196,-1313 311.2196,-1331 392.2196,-1331 392.2196,-1313 311.2196,-1313"/>
<text text-anchor="start" x="335.4773" y="-1319.9" font-family="Times,serif" font-weight="bold" font-style="italic" font-size="9.00" fill="#000000"> reviews </text>
<polygon fill="none" stroke="#000000" points="311.2196,-1293 311.2196,-1313 392.2196,-1313 392.2196,-1293 311.2196,-1293"/>
<text text-anchor="start" x="316.2196" y="-1299.9" font-family="Times,serif" font-size="9.00" fill="#000000">userId: ObjectId</text>
<polygon fill="none" stroke="#000000" points="311.2196,-1273 311.2196,-1293 392.2196,-1293 392.2196,-1273 311.2196,-1273"/>
<text text-anchor="start" x="316.1071" y="-1279.9" font-family="Times,serif" font-size="9.00" fill="#000000">productId: ObjectId</text>
<polygon fill="none" stroke="#000000" points="311.2196,-1253 311.2196,-1273 392.2196,-1273 392.2196,-1253 311.2196,-1253"/>
<text text-anchor="start" x="316.2196" y="-1259.9" font-family="Times,serif" font-size="9.00" fill="#000000">doctorId: ObjectId</text>
<polygon fill="none" stroke="#000000" points="311.2196,-1233 311.2196,-1253 392.2196,-1253 392.2196,-1233 311.2196,-1233"/>
<text text-anchor="start" x="316.2196" y="-1239.9" font-family="Times,serif" font-size="9.00" fill="#000000">rating: Number</text>
<polygon fill="none" stroke="#000000" points="311.2196,-1213 311.2196,-1233 392.2196,-1233 392.2196,-1213 311.2196,-1213"/>
<text text-anchor="start" x="316.2196" y="-1219.9" font-family="Times,serif" font-size="9.00" fill="#000000">review: String</text>
<polygon fill="none" stroke="#000000" points="311.2196,-1193 311.2196,-1213 392.2196,-1213 392.2196,-1193 311.2196,-1193"/>
<text text-anchor="start" x="316.2196" y="-1199.9" font-family="Times,serif" font-size="9.00" fill="#000000">_id: ObjectId</text>
<polygon fill="none" stroke="#000000" points="311.2196,-1173 311.2196,-1193 392.2196,-1193 392.2196,-1173 311.2196,-1173"/>
<text text-anchor="start" x="316.2196" y="-1179.9" font-family="Times,serif" font-size="9.00" fill="#000000">createdAt: Date</text>
<polygon fill="none" stroke="#000000" points="311.2196,-1153 311.2196,-1173 392.2196,-1173 392.2196,-1153 311.2196,-1153"/>
<text text-anchor="start" x="316.2196" y="-1159.9" font-family="Times,serif" font-size="9.00" fill="#000000">updatedAt: Date</text>
<polygon fill="none" stroke="#000000" points="311.2196,-1133 311.2196,-1153 392.2196,-1153 392.2196,-1133 311.2196,-1133"/>
<text text-anchor="start" x="316.2196" y="-1139.9" font-family="Times,serif" font-size="9.00" fill="#000000">__v: Number</text>
</g>
<!-- doctors&#45;&gt;reviews -->
<g id="edge7" class="edge">
<title>doctors:6&#45;&gt;reviews:2</title>
<path fill="none" stroke="#000000" stroke-dasharray="5,2" d="M90,-1194C168.6266,-1194 197.4439,-1165.0111 266.7196,-1202.2 296.2238,-1218.0386 277.7329,-1263 311.2196,-1263"/>
<text text-anchor="middle" x="196.3598" y="-1206.2" font-family="Times,serif" font-size="14.00" fill="#000000">doctors&#45;reviews</text>
<text text-anchor="middle" x="306.1663" y="-1267.2" font-family="Times,serif" font-size="14.00" fill="#000000">N</text>
<text text-anchor="middle" x="93.5" y="-1198.2" font-family="Times,serif" font-size="14.00" fill="#000000">1</text>
</g>
<!-- orders -->
<g id="node5" class="node">
<title>orders</title>
<polygon fill="#4477c9" stroke="transparent" points="302.7196,-400 302.7196,-638 399.7196,-638 399.7196,-400 302.7196,-400"/>
<polygon fill="#add8e6" stroke="transparent" points="303.2196,-620 303.2196,-638 400.2196,-638 400.2196,-620 303.2196,-620"/>
<polygon fill="none" stroke="#000000" points="303.2196,-620 303.2196,-638 400.2196,-638 400.2196,-620 303.2196,-620"/>
<text text-anchor="start" x="338.2259" y="-626.9" font-family="Times,serif" font-weight="bold" font-style="italic" font-size="9.00" fill="#000000"> orders </text>
<polygon fill="none" stroke="#000000" points="303.2196,-600 303.2196,-620 400.2196,-620 400.2196,-600 303.2196,-600"/>
<text text-anchor="start" x="308.2196" y="-606.9" font-family="Times,serif" font-size="9.00" fill="#000000">userId: ObjectId</text>
<polygon fill="none" stroke="#000000" points="303.2196,-580 303.2196,-600 400.2196,-600 400.2196,-580 303.2196,-580"/>
<text text-anchor="start" x="308.2196" y="-586.9" font-family="Times,serif" font-size="9.00" fill="#000000">items: Array</text>
<polygon fill="none" stroke="#000000" points="303.2196,-560 303.2196,-580 400.2196,-580 400.2196,-560 303.2196,-560"/>
<text text-anchor="start" x="308.2196" y="-566.9" font-family="Times,serif" font-size="9.00" fill="#000000">total: Number</text>
<polygon fill="none" stroke="#000000" points="303.2196,-540 303.2196,-560 400.2196,-560 400.2196,-540 303.2196,-540"/>
<text text-anchor="start" x="308.098" y="-546.9" font-family="Times,serif" font-size="9.00" fill="#000000">shippingAddress: String</text>
<polygon fill="none" stroke="#000000" points="303.2196,-520 303.2196,-540 400.2196,-540 400.2196,-520 303.2196,-520"/>
<text text-anchor="start" x="308.2196" y="-526.9" font-family="Times,serif" font-size="9.00" fill="#000000">status: String</text>
<polygon fill="none" stroke="#000000" points="303.2196,-500 303.2196,-520 400.2196,-520 400.2196,-500 303.2196,-500"/>
<text text-anchor="start" x="308.2196" y="-506.9" font-family="Times,serif" font-size="9.00" fill="#000000">paymentMethod: String</text>
<polygon fill="none" stroke="#000000" points="303.2196,-480 303.2196,-500 400.2196,-500 400.2196,-480 303.2196,-480"/>
<text text-anchor="start" x="308.2196" y="-486.9" font-family="Times,serif" font-size="9.00" fill="#000000">paymentStatus: String</text>
<polygon fill="none" stroke="#000000" points="303.2196,-460 303.2196,-480 400.2196,-480 400.2196,-460 303.2196,-460"/>
<text text-anchor="start" x="308.2196" y="-466.9" font-family="Times,serif" font-size="9.00" fill="#000000">_id: ObjectId</text>
<polygon fill="none" stroke="#000000" points="303.2196,-440 303.2196,-460 400.2196,-460 400.2196,-440 303.2196,-440"/>
<text text-anchor="start" x="308.2196" y="-446.9" font-family="Times,serif" font-size="9.00" fill="#000000">createdAt: Date</text>
<polygon fill="none" stroke="#000000" points="303.2196,-420 303.2196,-440 400.2196,-440 400.2196,-420 303.2196,-420"/>
<text text-anchor="start" x="308.2196" y="-426.9" font-family="Times,serif" font-size="9.00" fill="#000000">updatedAt: Date</text>
<polygon fill="none" stroke="#000000" points="303.2196,-400 303.2196,-420 400.2196,-420 400.2196,-400 303.2196,-400"/>
<text text-anchor="start" x="308.2196" y="-406.9" font-family="Times,serif" font-size="9.00" fill="#000000">__v: Number</text>
</g>
<!-- patients -->
<g id="node6" class="node">
<title>patients</title>
<polygon fill="#4477c9" stroke="transparent" points="10.5,-489 10.5,-727 79.5,-727 79.5,-489 10.5,-489"/>
<polygon fill="#add8e6" stroke="transparent" points="11,-709 11,-727 80,-727 80,-709 11,-709"/>
<polygon fill="none" stroke="#000000" points="11,-709 11,-727 80,-727 80,-709 11,-709"/>
<text text-anchor="start" x="29.2532" y="-715.9" font-family="Times,serif" font-weight="bold" font-style="italic" font-size="9.00" fill="#000000"> patients </text>
<polygon fill="none" stroke="#000000" points="11,-689 11,-709 80,-709 80,-689 11,-689"/>
<text text-anchor="start" x="16" y="-695.9" font-family="Times,serif" font-size="9.00" fill="#000000">phone: String</text>
<polygon fill="none" stroke="#000000" points="11,-669 11,-689 80,-689 80,-669 11,-669"/>
<text text-anchor="start" x="16" y="-675.9" font-family="Times,serif" font-size="9.00" fill="#000000">fname: String</text>
<polygon fill="none" stroke="#000000" points="11,-649 11,-669 80,-669 80,-649 11,-649"/>
<text text-anchor="start" x="16" y="-655.9" font-family="Times,serif" font-size="9.00" fill="#000000">lname: String</text>
<polygon fill="none" stroke="#000000" points="11,-629 11,-649 80,-649 80,-629 11,-629"/>
<text text-anchor="start" x="16" y="-635.9" font-family="Times,serif" font-size="9.00" fill="#000000">email: String</text>
<polygon fill="none" stroke="#000000" points="11,-609 11,-629 80,-629 80,-609 11,-609"/>
<text text-anchor="start" x="16" y="-615.9" font-family="Times,serif" font-size="9.00" fill="#000000">dob: String</text>
<polygon fill="none" stroke="#000000" points="11,-589 11,-609 80,-609 80,-589 11,-589"/>
<text text-anchor="start" x="16" y="-595.9" font-family="Times,serif" font-size="9.00" fill="#000000">gender: String</text>
<polygon fill="none" stroke="#000000" points="11,-569 11,-589 80,-589 80,-569 11,-569"/>
<text text-anchor="start" x="16" y="-575.9" font-family="Times,serif" font-size="9.00" fill="#000000">address: String</text>
<polygon fill="none" stroke="#000000" points="11,-549 11,-569 80,-569 80,-549 11,-549"/>
<text text-anchor="start" x="16" y="-555.9" font-family="Times,serif" font-size="9.00" fill="#000000">_id: ObjectId</text>
<polygon fill="none" stroke="#000000" points="11,-529 11,-549 80,-549 80,-529 11,-529"/>
<text text-anchor="start" x="16" y="-535.9" font-family="Times,serif" font-size="9.00" fill="#000000">createdAt: Date</text>
<polygon fill="none" stroke="#000000" points="11,-509 11,-529 80,-529 80,-509 11,-509"/>
<text text-anchor="start" x="15.8855" y="-515.9" font-family="Times,serif" font-size="9.00" fill="#000000">updatedAt: Date</text>
<polygon fill="none" stroke="#000000" points="11,-489 11,-509 80,-509 80,-489 11,-489"/>
<text text-anchor="start" x="16" y="-495.9" font-family="Times,serif" font-size="9.00" fill="#000000">__v: Number</text>
</g>
<!-- patients&#45;&gt;appointments -->
<g id="edge1" class="edge">
<title>patients:7&#45;&gt;appointments:0</title>
<path fill="none" stroke="#000000" stroke-dasharray="5,2" d="M80,-559C123.3464,-559 101.4363,-609.2854 126,-645 197.6375,-749.1579 185.8045,-860 312.2196,-860"/>
<text text-anchor="middle" x="196.3598" y="-857.2" font-family="Times,serif" font-size="14.00" fill="#000000">patients&#45;appointments</text>
<text text-anchor="middle" x="307.1663" y="-847.4" font-family="Times,serif" font-size="14.00" fill="#000000">N</text>
<text text-anchor="middle" x="83.5" y="-546.4" font-family="Times,serif" font-size="14.00" fill="#000000">1</text>
</g>
<!-- servicebookings -->
<g id="node9" class="node">
<title>servicebookings</title>
<polygon fill="#4477c9" stroke="transparent" points="311.7196,-150 311.7196,-328 390.7196,-328 390.7196,-150 311.7196,-150"/>
<polygon fill="#add8e6" stroke="transparent" points="312.2196,-310 312.2196,-328 391.2196,-328 391.2196,-310 312.2196,-310"/>
<polygon fill="none" stroke="#000000" points="312.2196,-310 312.2196,-328 391.2196,-328 391.2196,-310 312.2196,-310"/>
<text text-anchor="start" x="320.2277" y="-316.9" font-family="Times,serif" font-weight="bold" font-style="italic" font-size="9.00" fill="#000000"> servicebookings </text>
<polygon fill="none" stroke="#000000" points="312.2196,-290 312.2196,-310 391.2196,-310 391.2196,-290 312.2196,-290"/>
<text text-anchor="start" x="317.2196" y="-296.9" font-family="Times,serif" font-size="9.00" fill="#000000">patientId: ObjectId</text>
<polygon fill="none" stroke="#000000" points="312.2196,-270 312.2196,-290 391.2196,-290 391.2196,-270 312.2196,-270"/>
<text text-anchor="start" x="317.1119" y="-276.9" font-family="Times,serif" font-size="9.00" fill="#000000">serviceId: ObjectId</text>
<polygon fill="none" stroke="#000000" points="312.2196,-250 312.2196,-270 391.2196,-270 391.2196,-250 312.2196,-250"/>
<text text-anchor="start" x="317.2196" y="-256.9" font-family="Times,serif" font-size="9.00" fill="#000000">date: Date</text>
<polygon fill="none" stroke="#000000" points="312.2196,-230 312.2196,-250 391.2196,-250 391.2196,-230 312.2196,-230"/>
<text text-anchor="start" x="317.2196" y="-236.9" font-family="Times,serif" font-size="9.00" fill="#000000">status: String</text>
<polygon fill="none" stroke="#000000" points="312.2196,-210 312.2196,-230 391.2196,-230 391.2196,-210 312.2196,-210"/>
<text text-anchor="start" x="317.2196" y="-216.9" font-family="Times,serif" font-size="9.00" fill="#000000">_id: ObjectId</text>
<polygon fill="none" stroke="#000000" points="312.2196,-190 312.2196,-210 391.2196,-210 391.2196,-190 312.2196,-190"/>
<text text-anchor="start" x="317.2196" y="-196.9" font-family="Times,serif" font-size="9.00" fill="#000000">createdAt: Date</text>
<polygon fill="none" stroke="#000000" points="312.2196,-170 312.2196,-190 391.2196,-190 391.2196,-170 312.2196,-170"/>
<text text-anchor="start" x="317.2196" y="-176.9" font-family="Times,serif" font-size="9.00" fill="#000000">updatedAt: Date</text>
<polygon fill="none" stroke="#000000" points="312.2196,-150 312.2196,-170 391.2196,-170 391.2196,-150 312.2196,-150"/>
<text text-anchor="start" x="317.2196" y="-156.9" font-family="Times,serif" font-size="9.00" fill="#000000">__v: Number</text>
</g>
<!-- patients&#45;&gt;servicebookings -->
<g id="edge8" class="edge">
<title>patients:7&#45;&gt;servicebookings:0</title>
<path fill="none" stroke="#000000" stroke-dasharray="5,2" d="M80,-559C112.1406,-559 104.913,-527.456 126,-503.2 166.1851,-456.976 250.9701,-300 312.2196,-300"/>
<text text-anchor="middle" x="196.3598" y="-507.2" font-family="Times,serif" font-size="14.00" fill="#000000">patients&#45;servicebookings</text>
<text text-anchor="middle" x="307.1663" y="-287.4" font-family="Times,serif" font-size="14.00" fill="#000000">N</text>
<text text-anchor="middle" x="83.5" y="-563.2" font-family="Times,serif" font-size="14.00" fill="#000000">1</text>
</g>
<!-- products -->
<g id="node7" class="node">
<title>products</title>
<polygon fill="#4477c9" stroke="transparent" points="7,-1414 7,-1552 83,-1552 83,-1414 7,-1414"/>
<polygon fill="#add8e6" stroke="transparent" points="7,-1534 7,-1552 83,-1552 83,-1534 7,-1534"/>
<polygon fill="none" stroke="#000000" points="7,-1534 7,-1552 83,-1552 83,-1534 7,-1534"/>
<text text-anchor="start" x="27.2538" y="-1540.9" font-family="Times,serif" font-weight="bold" font-style="italic" font-size="9.00" fill="#000000"> products </text>
<polygon fill="none" stroke="#000000" points="7,-1514 7,-1534 83,-1534 83,-1514 7,-1514"/>
<text text-anchor="start" x="12" y="-1520.9" font-family="Times,serif" font-size="9.00" fill="#000000">name: String</text>
<polygon fill="none" stroke="#000000" points="7,-1494 7,-1514 83,-1514 83,-1494 7,-1494"/>
<text text-anchor="start" x="12" y="-1500.9" font-family="Times,serif" font-size="9.00" fill="#000000">price: Number</text>
<polygon fill="none" stroke="#000000" points="7,-1474 7,-1494 83,-1494 83,-1474 7,-1474"/>
<text text-anchor="start" x="11.6289" y="-1480.9" font-family="Times,serif" font-size="9.00" fill="#000000">description: String</text>
<polygon fill="none" stroke="#000000" points="7,-1454 7,-1474 83,-1474 83,-1454 7,-1454"/>
<text text-anchor="start" x="12" y="-1460.9" font-family="Times,serif" font-size="9.00" fill="#000000">image: String</text>
<polygon fill="none" stroke="#000000" points="7,-1434 7,-1454 83,-1454 83,-1434 7,-1434"/>
<text text-anchor="start" x="12" y="-1440.9" font-family="Times,serif" font-size="9.00" fill="#000000">_id: ObjectId</text>
<polygon fill="none" stroke="#000000" points="7,-1414 7,-1434 83,-1434 83,-1414 7,-1414"/>
<text text-anchor="start" x="12" y="-1420.9" font-family="Times,serif" font-size="9.00" fill="#000000">__v: Number</text>
</g>
<!-- products&#45;&gt;reviews -->
<g id="edge6" class="edge">
<title>products:4&#45;&gt;reviews:1</title>
<path fill="none" stroke="#000000" stroke-dasharray="5,2" d="M83,-1444C177.2693,-1444 195.0407,-1399.2277 266.7196,-1338 290.6281,-1317.5775 279.7761,-1283 311.2196,-1283"/>
<text text-anchor="middle" x="196.3598" y="-1443.2" font-family="Times,serif" font-size="14.00" fill="#000000">products&#45;reviews</text>
<text text-anchor="middle" x="306.1663" y="-1287.2" font-family="Times,serif" font-size="14.00" fill="#000000">N</text>
<text text-anchor="middle" x="86.5" y="-1431.4" font-family="Times,serif" font-size="14.00" fill="#000000">1</text>
</g>
<!-- services -->
<g id="node10" class="node">
<title>services</title>
<polygon fill="#4477c9" stroke="transparent" points="7,-210 7,-388 83,-388 83,-210 7,-210"/>
<polygon fill="#add8e6" stroke="transparent" points="7,-370 7,-388 83,-388 83,-370 7,-370"/>
<polygon fill="none" stroke="#000000" points="7,-370 7,-388 83,-388 83,-370 7,-370"/>
<text text-anchor="start" x="28.2587" y="-376.9" font-family="Times,serif" font-weight="bold" font-style="italic" font-size="9.00" fill="#000000"> services </text>
<polygon fill="none" stroke="#000000" points="7,-350 7,-370 83,-370 83,-350 7,-350"/>
<text text-anchor="start" x="12" y="-356.9" font-family="Times,serif" font-size="9.00" fill="#000000">name: String</text>
<polygon fill="none" stroke="#000000" points="7,-330 7,-350 83,-350 83,-330 7,-330"/>
<text text-anchor="start" x="11.6289" y="-336.9" font-family="Times,serif" font-size="9.00" fill="#000000">description: String</text>
<polygon fill="none" stroke="#000000" points="7,-310 7,-330 83,-330 83,-310 7,-310"/>
<text text-anchor="start" x="12" y="-316.9" font-family="Times,serif" font-size="9.00" fill="#000000">price: Number</text>
<polygon fill="none" stroke="#000000" points="7,-290 7,-310 83,-310 83,-290 7,-290"/>
<text text-anchor="start" x="12" y="-296.9" font-family="Times,serif" font-size="9.00" fill="#000000">category: String</text>
<polygon fill="none" stroke="#000000" points="7,-270 7,-290 83,-290 83,-270 7,-270"/>
<text text-anchor="start" x="12" y="-276.9" font-family="Times,serif" font-size="9.00" fill="#000000">_id: ObjectId</text>
<polygon fill="none" stroke="#000000" points="7,-250 7,-270 83,-270 83,-250 7,-250"/>
<text text-anchor="start" x="12" y="-256.9" font-family="Times,serif" font-size="9.00" fill="#000000">createdAt: Date</text>
<polygon fill="none" stroke="#000000" points="7,-230 7,-250 83,-250 83,-230 7,-230"/>
<text text-anchor="start" x="12" y="-236.9" font-family="Times,serif" font-size="9.00" fill="#000000">updatedAt: Date</text>
<polygon fill="none" stroke="#000000" points="7,-210 7,-230 83,-230 83,-210 7,-210"/>
<text text-anchor="start" x="12" y="-216.9" font-family="Times,serif" font-size="9.00" fill="#000000">__v: Number</text>
</g>
<!-- services&#45;&gt;servicebookings -->
<g id="edge9" class="edge">
<title>services:4&#45;&gt;servicebookings:1</title>
<path fill="none" stroke="#000000" stroke-dasharray="5,2" d="M83,-280C184.8754,-280 210.3442,-280 312.2196,-280"/>
<text text-anchor="middle" x="196.3598" y="-284.2" font-family="Times,serif" font-size="14.00" fill="#000000">services&#45;servicebookings</text>
<text text-anchor="middle" x="307.1663" y="-267.4" font-family="Times,serif" font-size="14.00" fill="#000000">N</text>
<text text-anchor="middle" x="86.5" y="-267.4" font-family="Times,serif" font-size="14.00" fill="#000000">1</text>
</g>
<!-- users -->
<g id="node11" class="node">
<title>users</title>
<polygon fill="#4477c9" stroke="transparent" points="10,-814 10,-1052 80,-1052 80,-814 10,-814"/>
<polygon fill="#add8e6" stroke="transparent" points="10,-1034 10,-1052 80,-1052 80,-1034 10,-1034"/>
<polygon fill="none" stroke="#000000" points="10,-1034 10,-1052 80,-1052 80,-1034 10,-1034"/>
<text text-anchor="start" x="33.5043" y="-1040.9" font-family="Times,serif" font-weight="bold" font-style="italic" font-size="9.00" fill="#000000"> users </text>
<polygon fill="none" stroke="#000000" points="10,-1014 10,-1034 80,-1034 80,-1014 10,-1014"/>
<text text-anchor="start" x="15" y="-1020.9" font-family="Times,serif" font-size="9.00" fill="#000000">name: String</text>
<polygon fill="none" stroke="#000000" points="10,-994 10,-1014 80,-1014 80,-994 10,-994"/>
<text text-anchor="start" x="15" y="-1000.9" font-family="Times,serif" font-size="9.00" fill="#000000">email: String</text>
<polygon fill="none" stroke="#000000" points="10,-974 10,-994 80,-994 80,-974 10,-974"/>
<text text-anchor="start" x="14.6295" y="-980.9" font-family="Times,serif" font-size="9.00" fill="#000000">password: String</text>
<polygon fill="none" stroke="#000000" points="10,-954 10,-974 80,-974 80,-954 10,-954"/>
<text text-anchor="start" x="15" y="-960.9" font-family="Times,serif" font-size="9.00" fill="#000000">phone: String</text>
<polygon fill="none" stroke="#000000" points="10,-934 10,-954 80,-954 80,-934 10,-934"/>
<text text-anchor="start" x="15" y="-940.9" font-family="Times,serif" font-size="9.00" fill="#000000">age: Number</text>
<polygon fill="none" stroke="#000000" points="10,-914 10,-934 80,-934 80,-914 10,-914"/>
<text text-anchor="start" x="15" y="-920.9" font-family="Times,serif" font-size="9.00" fill="#000000">role: String</text>
<polygon fill="none" stroke="#000000" points="10,-894 10,-914 80,-914 80,-894 10,-894"/>
<text text-anchor="start" x="15" y="-900.9" font-family="Times,serif" font-size="9.00" fill="#000000">gender: String</text>
<polygon fill="none" stroke="#000000" points="10,-874 10,-894 80,-894 80,-874 10,-874"/>
<text text-anchor="start" x="15" y="-880.9" font-family="Times,serif" font-size="9.00" fill="#000000">_id: ObjectId</text>
<polygon fill="none" stroke="#000000" points="10,-854 10,-874 80,-874 80,-854 10,-854"/>
<text text-anchor="start" x="15" y="-860.9" font-family="Times,serif" font-size="9.00" fill="#000000">createdAt: Date</text>
<polygon fill="none" stroke="#000000" points="10,-834 10,-854 80,-854 80,-834 10,-834"/>
<text text-anchor="start" x="15" y="-840.9" font-family="Times,serif" font-size="9.00" fill="#000000">updatedAt: Date</text>
<polygon fill="none" stroke="#000000" points="10,-814 10,-834 80,-834 80,-814 10,-814"/>
<text text-anchor="start" x="15" y="-820.9" font-family="Times,serif" font-size="9.00" fill="#000000">__v: Number</text>
</g>
<!-- users&#45;&gt;carts -->
<g id="edge3" class="edge">
<title>users:7&#45;&gt;carts:0</title>
<path fill="none" stroke="#000000" stroke-dasharray="5,2" d="M80,-884C141.8996,-884 255.32,-1030 317.2196,-1030"/>
<text text-anchor="middle" x="196.3598" y="-1012.2" font-family="Times,serif" font-size="14.00" fill="#000000">users&#45;carts</text>
<text text-anchor="middle" x="312.1663" y="-1017.4" font-family="Times,serif" font-size="14.00" fill="#000000">N</text>
<text text-anchor="middle" x="83.5" y="-871.4" font-family="Times,serif" font-size="14.00" fill="#000000">1</text>
</g>
<!-- users&#45;&gt;orders -->
<g id="edge4" class="edge">
<title>users:7&#45;&gt;orders:0</title>
<path fill="none" stroke="#000000" stroke-dasharray="5,2" d="M80,-884C141.6972,-884 78.9204,-650.0754 126,-610.2 186.1032,-559.294 224.4553,-610 303.2196,-610"/>
<text text-anchor="middle" x="196.3598" y="-614.2" font-family="Times,serif" font-size="14.00" fill="#000000">users&#45;orders</text>
<text text-anchor="middle" x="298.1663" y="-597.4" font-family="Times,serif" font-size="14.00" fill="#000000">N</text>
<text text-anchor="middle" x="83.5" y="-888.2" font-family="Times,serif" font-size="14.00" fill="#000000">1</text>
</g>
<!-- users&#45;&gt;reviews -->
<g id="edge5" class="edge">
<title>users:7&#45;&gt;reviews:0</title>
<path fill="none" stroke="#000000" stroke-dasharray="5,2" d="M80,-884C156.9046,-884 79.0085,-1166.1221 126,-1227 180.3702,-1297.437 222.2393,-1303 311.2196,-1303"/>
<text text-anchor="middle" x="196.3598" y="-1305.2" font-family="Times,serif" font-size="14.00" fill="#000000">users&#45;reviews</text>
<text text-anchor="middle" x="306.1663" y="-1307.2" font-family="Times,serif" font-size="14.00" fill="#000000">N</text>
<text text-anchor="middle" x="76.5" y="-888.2" font-family="Times,serif" font-size="14.00" fill="#000000">1</text>
</g>
</g>
</svg>
